<?xml version="1.0" encoding="utf-8"?>
<!-- Generator: Adobe Illustrator 26.0.3, SVG Export Plug-In . SVG Version: 6.00 Build 0)  -->
<svg version="1.0" id="katman_1" xmlns="http://www.w3.org/2000/svg" xmlns:xlink="http://www.w3.org/1999/xlink" x="0px" y="0px"
	 viewBox="0 0 186 142.5" style="enable-background:new 0 0 186 142.5;" xml:space="preserve">
<style type="text/css">
	.st0{fill:#52218A;}
	.st1{fill:#6C33AF;}
	.st2{fill:#854CC7;}
	.st3{fill:#B179F1;}
	.st4{opacity:0.25;}
	.st5{fill-rule:evenodd;clip-rule:evenodd;fill:url(#SVGID_1_);}
</style>
<g>
	<path class="st0" d="M58.9,98.6c-1.1,1-2.7,1.2-4.1,0.7l-7.3-3.1C46,95.6,45,94.2,45,92.6V49.9c0-1.6,1-3.1,2.5-3.7l7.3-3
		c1.4-0.6,3-0.3,4.1,0.7l1.6,1.3c-1-0.7-2.4-0.5-3.1,0.5C57.1,46.1,57,46.6,57,47v48.4c0,1.2,1,2.2,2.2,2.2c0.5,0,0.9-0.1,1.3-0.4
		L58.9,98.6z"/>
	<path class="st1" d="M47.5,96.2C46,95.6,45,94.2,45,92.6v-0.3c0,1.3,1.1,2.3,2.3,2.3c0.6,0,1.2-0.3,1.7-0.7l62-68.6
		c1.8-1.8,4.5-2.3,6.8-1.2l19.8,9.5c2.1,1,3.4,3.1,3.4,5.4v0.2c0-2.1-1.7-3.8-3.8-3.8c-0.9,0-1.7,0.3-2.4,0.9L60.5,97.2l-1.6,1.4
		c-1.1,1-2.7,1.2-4.1,0.7L47.5,96.2z"/>
	<path class="st2" d="M47.5,46.2C46,46.9,45,48.3,45,49.9v0.3c0-1.3,1.1-2.3,2.3-2.3c0.6,0,1.2,0.3,1.7,0.7l62,68.6
		c1.8,1.8,4.5,2.3,6.8,1.2l19.8-9.5c2.1-1,3.4-3.1,3.4-5.4v-0.2c0,2.1-1.7,3.8-3.8,3.8c-0.9,0-1.7-0.3-2.4-0.9L60.5,45.2l-1.6-1.4
		c-1.2-1-2.8-1.2-4.1-0.6L47.5,46.2z"/>
	<path class="st3" d="M117.8,118.4c-2.3,1.1-5,0.6-6.8-1.2c1.4,1.4,3.6,1.4,5,0c0.7-0.7,1-1.5,1-2.5v-87c0-1.9-1.6-3.5-3.5-3.5
		c-0.9,0-1.8,0.4-2.5,1c1.8-1.8,4.5-2.3,6.8-1.2l19.8,9.5c2.1,1,3.4,3.1,3.4,5.4v64.5c0,2.3-1.3,4.4-3.4,5.4L117.8,118.4z"/>
	<g class="st4">
		
			<linearGradient id="SVGID_1_" gradientUnits="userSpaceOnUse" x1="93" y1="375.7377" x2="93" y2="471.2403" gradientTransform="matrix(1 0 0 1 0 -352.25)">
			<stop  offset="0" style="stop-color:#FFFFFF"/>
			<stop  offset="1" style="stop-color:#FFFFFF;stop-opacity:0"/>
		</linearGradient>
		<path class="st5" d="M113.9,118.8c1.3,0.3,2.7,0.1,3.9-0.4l19.8-9.5c2.1-1,3.4-3.1,3.4-5.4V39c0-2.3-1.3-4.4-3.4-5.4l-19.8-9.5
			c-1.4-0.7-3-0.8-4.5-0.3c-0.9,0.3-1.7,0.8-2.3,1.5L79.1,60.5L60.5,45.2l-1.6-1.4c-1-0.9-2.3-1.2-3.6-0.8c-0.2,0-0.4,0.1-0.5,0.2
			l-7.3,3c-1.4,0.6-2.3,1.9-2.5,3.4c0,0.1,0,0.2,0,0.3v42.7c0,0.1,0,0.2,0,0.3c0.1,1.5,1.1,2.8,2.5,3.4l7.3,3
			c0.2,0.1,0.3,0.1,0.5,0.2c1.3,0.3,2.6,0,3.6-0.8l1.6-1.3L79.1,82l31.9,35.3C111.8,118,112.8,118.6,113.9,118.8z M117,50.9
			L92.2,71.2L117,91.6V50.9z M57,57.5l12.4,13.7L57,85V57.5z"/>
	</g>
</g>
</svg>
